# xmcd
#
# Track frame offsets:
#	150
#	18600
#	46275
#	67125
#
# Disc length: 1263 seconds
#
# Revision: 1
# Processed by: cddbd v1.5.1PL2 Copyright (c) Steve Scherf et al.
# Submitted via: audiograbber 1.83.01
#
DISCID=3404ed04
DTITLE=j:lISSAT-r:zENKER - spreading across the country
DYEAR=1992
DGENRE=
TTITLE0=You're SO SPECIAL (Radio Edit)
TTITLE1=You're SO Special (PIZZICATO FLY VERSION)
TTITLE2=yOU#RE so special   8tribal house mix
TTITLE3=yOU#RE so special  8instrumental mix 9
EXTD=
EXTT0=
EXTT1=
EXTT2=
EXTT3=
PLAYORDER=
